<mxfile host="app.diagrams.net" agent="Mozilla/5.0 (Windows NT 10.0; Win64; x64) AppleWebKit/537.36 (KHTML, like Gecko) Chrome/129.0.0.0 Safari/537.36" version="24.8.0">
  <diagram id="iSdH8Bf3Pxa846-qju2B" name="Шаблон">
    <mxGraphModel dx="819" dy="428" grid="1" gridSize="10" guides="1" tooltips="1" connect="1" arrows="1" fold="1" page="1" pageScale="1" pageWidth="1169" pageHeight="827" math="0" shadow="0">
      <root>
        <mxCell id="0" />
        <mxCell id="1" parent="0" />
        <mxCell id="5DFN9uElky3kn-lGwo1o-1" value="" style="shape=table;startSize=0;container=1;collapsible=0;childLayout=tableLayout;pointerEvents=1;strokeColor=inherit;align=center;verticalAlign=middle;spacingLeft=7;spacingRight=7;fontFamily=Helvetica;fontSize=12;fontColor=default;fillColor=none;" parent="1" vertex="1">
          <mxGeometry x="80" y="80" width="600" height="1370.0000000000005" as="geometry" />
        </mxCell>
        <mxCell id="5DFN9uElky3kn-lGwo1o-6" value="" style="shape=tableRow;horizontal=0;startSize=0;swimlaneHead=0;swimlaneBody=0;strokeColor=inherit;top=0;left=0;bottom=0;right=0;collapsible=0;dropTarget=0;fillColor=none;points=[[0,0.5],[1,0.5]];portConstraint=eastwest;pointerEvents=1;align=center;verticalAlign=middle;spacingLeft=7;spacingRight=7;fontFamily=Helvetica;fontSize=12;fontColor=default;" parent="5DFN9uElky3kn-lGwo1o-1" vertex="1">
          <mxGeometry width="600" height="40" as="geometry" />
        </mxCell>
        <mxCell id="5DFN9uElky3kn-lGwo1o-7" value="&lt;b&gt;Заголовок&lt;/b&gt;" style="shape=partialRectangle;html=1;whiteSpace=wrap;connectable=0;strokeColor=inherit;overflow=hidden;fillColor=none;top=0;left=0;bottom=0;right=0;pointerEvents=1;align=center;verticalAlign=middle;spacingLeft=7;spacingRight=7;fontFamily=Helvetica;fontSize=12;fontColor=default;" parent="5DFN9uElky3kn-lGwo1o-6" vertex="1">
          <mxGeometry width="160" height="40" as="geometry">
            <mxRectangle width="160" height="40" as="alternateBounds" />
          </mxGeometry>
        </mxCell>
        <mxCell id="5DFN9uElky3kn-lGwo1o-9" value="&lt;span style=&quot;text-align: start;&quot;&gt;&lt;font style=&quot;font-size: 12px;&quot; face=&quot;Helvetica&quot;&gt;Добавление данных о приеме пищи с помощью приложения &quot;Здоровье&quot;&lt;/font&gt;&lt;/span&gt;" style="shape=partialRectangle;html=1;whiteSpace=wrap;connectable=0;strokeColor=inherit;overflow=hidden;fillColor=none;top=0;left=0;bottom=0;right=0;pointerEvents=1;spacingLeft=7;spacingRight=7;align=center;verticalAlign=middle;fontFamily=Helvetica;fontSize=12;fontColor=default;" parent="5DFN9uElky3kn-lGwo1o-6" vertex="1">
          <mxGeometry x="160" width="440" height="40" as="geometry">
            <mxRectangle width="440" height="40" as="alternateBounds" />
          </mxGeometry>
        </mxCell>
        <mxCell id="5DFN9uElky3kn-lGwo1o-10" value="" style="shape=tableRow;horizontal=0;startSize=0;swimlaneHead=0;swimlaneBody=0;strokeColor=inherit;top=0;left=0;bottom=0;right=0;collapsible=0;dropTarget=0;fillColor=none;points=[[0,0.5],[1,0.5]];portConstraint=eastwest;pointerEvents=1;align=center;verticalAlign=middle;spacingLeft=7;spacingRight=7;fontFamily=Helvetica;fontSize=12;fontColor=default;" parent="5DFN9uElky3kn-lGwo1o-1" vertex="1">
          <mxGeometry y="40" width="600" height="40" as="geometry" />
        </mxCell>
        <mxCell id="5DFN9uElky3kn-lGwo1o-11" value="&lt;b&gt;Акторы&lt;/b&gt;" style="shape=partialRectangle;html=1;whiteSpace=wrap;connectable=0;strokeColor=inherit;overflow=hidden;fillColor=none;top=0;left=0;bottom=0;right=0;pointerEvents=1;align=center;verticalAlign=middle;spacingLeft=7;spacingRight=7;fontFamily=Helvetica;fontSize=12;fontColor=default;" parent="5DFN9uElky3kn-lGwo1o-10" vertex="1">
          <mxGeometry width="160" height="40" as="geometry">
            <mxRectangle width="160" height="40" as="alternateBounds" />
          </mxGeometry>
        </mxCell>
        <mxCell id="5DFN9uElky3kn-lGwo1o-13" value="&lt;span style=&quot;text-align: start;&quot;&gt;&lt;font face=&quot;Helvetica&quot; style=&quot;font-size: 12px;&quot;&gt;Пользователь приложения &quot;Здоровье&quot;&lt;/font&gt;&lt;/span&gt;" style="shape=partialRectangle;html=1;whiteSpace=wrap;connectable=0;strokeColor=inherit;overflow=hidden;fillColor=none;top=0;left=0;bottom=0;right=0;pointerEvents=1;spacingLeft=7;spacingRight=7;align=center;verticalAlign=middle;fontFamily=Helvetica;fontSize=12;fontColor=default;" parent="5DFN9uElky3kn-lGwo1o-10" vertex="1">
          <mxGeometry x="160" width="440" height="40" as="geometry">
            <mxRectangle width="440" height="40" as="alternateBounds" />
          </mxGeometry>
        </mxCell>
        <mxCell id="5DFN9uElky3kn-lGwo1o-14" value="" style="shape=tableRow;horizontal=0;startSize=0;swimlaneHead=0;swimlaneBody=0;strokeColor=inherit;top=0;left=0;bottom=0;right=0;collapsible=0;dropTarget=0;fillColor=none;points=[[0,0.5],[1,0.5]];portConstraint=eastwest;pointerEvents=1;align=center;verticalAlign=middle;spacingLeft=7;spacingRight=7;fontFamily=Helvetica;fontSize=12;fontColor=default;" parent="5DFN9uElky3kn-lGwo1o-1" vertex="1">
          <mxGeometry y="80" width="600" height="110" as="geometry" />
        </mxCell>
        <mxCell id="5DFN9uElky3kn-lGwo1o-15" value="&lt;b&gt;Предусловие&lt;/b&gt;" style="shape=partialRectangle;html=1;whiteSpace=wrap;connectable=0;strokeColor=inherit;overflow=hidden;fillColor=none;top=0;left=0;bottom=0;right=0;pointerEvents=1;align=center;verticalAlign=middle;spacingLeft=7;spacingRight=7;fontFamily=Helvetica;fontSize=12;fontColor=default;" parent="5DFN9uElky3kn-lGwo1o-14" vertex="1">
          <mxGeometry width="160" height="110" as="geometry">
            <mxRectangle width="160" height="110" as="alternateBounds" />
          </mxGeometry>
        </mxCell>
        <mxCell id="5DFN9uElky3kn-lGwo1o-17" value="&lt;ul style=&quot;box-sizing: border-box; padding-left: 2em; margin-top: 0px; margin-bottom: var(--base-size-16); text-align: start;&quot; dir=&quot;auto&quot;&gt;&lt;li style=&quot;box-sizing: border-box;&quot;&gt;&lt;font style=&quot;font-size: 12px;&quot; face=&quot;Helvetica&quot;&gt;Приложение &quot;Здоровье&quot; установлено на устройство, поддерживающее IOS.&lt;/font&gt;&lt;/li&gt;&lt;li style=&quot;box-sizing: border-box; margin-top: 0.25em;&quot;&gt;&lt;font style=&quot;font-size: 12px;&quot;&gt;Пользователь авторизован в приложении.&lt;/font&gt;&lt;/li&gt;&lt;li style=&quot;box-sizing: border-box; margin-top: 0.25em;&quot;&gt;&lt;font face=&quot;Helvetica&quot; style=&quot;font-size: 12px;&quot;&gt;Пользователь находится на экране Аналитики Дневника Питания (Экран 1).&lt;/font&gt;&lt;/li&gt;&lt;/ul&gt;" style="shape=partialRectangle;html=1;whiteSpace=wrap;connectable=0;strokeColor=inherit;overflow=hidden;fillColor=none;top=0;left=0;bottom=0;right=0;pointerEvents=1;spacingLeft=7;spacingRight=7;align=center;verticalAlign=middle;fontFamily=Helvetica;fontSize=12;fontColor=default;" parent="5DFN9uElky3kn-lGwo1o-14" vertex="1">
          <mxGeometry x="160" width="440" height="110" as="geometry">
            <mxRectangle width="440" height="110" as="alternateBounds" />
          </mxGeometry>
        </mxCell>
        <mxCell id="5DFN9uElky3kn-lGwo1o-18" value="" style="shape=tableRow;horizontal=0;startSize=0;swimlaneHead=0;swimlaneBody=0;strokeColor=inherit;top=0;left=0;bottom=0;right=0;collapsible=0;dropTarget=0;fillColor=none;points=[[0,0.5],[1,0.5]];portConstraint=eastwest;pointerEvents=1;align=center;verticalAlign=middle;spacingLeft=7;spacingRight=7;fontFamily=Helvetica;fontSize=12;fontColor=default;" parent="5DFN9uElky3kn-lGwo1o-1" vertex="1">
          <mxGeometry y="190" width="600" height="190" as="geometry" />
        </mxCell>
        <mxCell id="5DFN9uElky3kn-lGwo1o-19" value="&lt;b&gt;Ограничения&lt;/b&gt;" style="shape=partialRectangle;html=1;whiteSpace=wrap;connectable=0;strokeColor=inherit;overflow=hidden;fillColor=none;top=0;left=0;bottom=0;right=0;pointerEvents=1;align=center;verticalAlign=middle;spacingLeft=7;spacingRight=7;fontFamily=Helvetica;fontSize=12;fontColor=default;" parent="5DFN9uElky3kn-lGwo1o-18" vertex="1">
          <mxGeometry width="160" height="190" as="geometry">
            <mxRectangle width="160" height="190" as="alternateBounds" />
          </mxGeometry>
        </mxCell>
        <mxCell id="5DFN9uElky3kn-lGwo1o-21" value="&lt;div&gt;Пользователь может сохранить только тот прием пищи, в котором добавлен хотя бы один продукт (Экран 2).&lt;br&gt;&lt;/div&gt;&lt;div&gt;&lt;br&gt;&lt;/div&gt;На экране Поиска продукта (Экран 3) отображается не более 10 продуктов за раз.&lt;div&gt;&lt;br&gt;&lt;/div&gt;&lt;div&gt;Пользователь может изменить вес продукта только на 10г за одно касание кнопки &quot;+&quot; или &quot;-&quot; (Экран 3)&lt;/div&gt;&lt;div&gt;&lt;br&gt;&lt;/div&gt;&lt;div&gt;Система сохраняет продукт с заполненными обязательными полями и уникальным названием(Экран 4).&lt;/div&gt;" style="shape=partialRectangle;html=1;whiteSpace=wrap;connectable=0;strokeColor=inherit;overflow=hidden;fillColor=none;top=0;left=0;bottom=0;right=0;pointerEvents=1;spacingLeft=7;spacingRight=7;align=center;verticalAlign=middle;fontFamily=Helvetica;fontSize=12;fontColor=default;" parent="5DFN9uElky3kn-lGwo1o-18" vertex="1">
          <mxGeometry x="160" width="440" height="190" as="geometry">
            <mxRectangle width="440" height="190" as="alternateBounds" />
          </mxGeometry>
        </mxCell>
        <mxCell id="5DFN9uElky3kn-lGwo1o-22" value="" style="shape=tableRow;horizontal=0;startSize=0;swimlaneHead=0;swimlaneBody=0;strokeColor=inherit;top=0;left=0;bottom=0;right=0;collapsible=0;dropTarget=0;fillColor=none;points=[[0,0.5],[1,0.5]];portConstraint=eastwest;pointerEvents=1;align=center;verticalAlign=middle;spacingLeft=7;spacingRight=7;fontFamily=Helvetica;fontSize=12;fontColor=default;" parent="5DFN9uElky3kn-lGwo1o-1" vertex="1">
          <mxGeometry y="380" width="600" height="40" as="geometry" />
        </mxCell>
        <mxCell id="5DFN9uElky3kn-lGwo1o-23" value="&lt;b&gt;Триггер&lt;/b&gt;" style="shape=partialRectangle;html=1;whiteSpace=wrap;connectable=0;strokeColor=inherit;overflow=hidden;fillColor=none;top=0;left=0;bottom=0;right=0;pointerEvents=1;align=center;verticalAlign=middle;spacingLeft=7;spacingRight=7;fontFamily=Helvetica;fontSize=12;fontColor=default;" parent="5DFN9uElky3kn-lGwo1o-22" vertex="1">
          <mxGeometry width="160" height="40" as="geometry">
            <mxRectangle width="160" height="40" as="alternateBounds" />
          </mxGeometry>
        </mxCell>
        <mxCell id="5DFN9uElky3kn-lGwo1o-25" value="&lt;span style=&quot;text-align: start;&quot;&gt;&lt;font style=&quot;font-size: 12px;&quot;&gt;Пользователь нажимает кнопку &quot;Добавить прием пищи&quot; (1).&lt;/font&gt;&lt;/span&gt;" style="shape=partialRectangle;html=1;whiteSpace=wrap;connectable=0;strokeColor=inherit;overflow=hidden;fillColor=none;top=0;left=0;bottom=0;right=0;pointerEvents=1;spacingLeft=7;spacingRight=7;align=center;verticalAlign=middle;fontFamily=Helvetica;fontSize=12;fontColor=default;" parent="5DFN9uElky3kn-lGwo1o-22" vertex="1">
          <mxGeometry x="160" width="440" height="40" as="geometry">
            <mxRectangle width="440" height="40" as="alternateBounds" />
          </mxGeometry>
        </mxCell>
        <mxCell id="5DFN9uElky3kn-lGwo1o-26" value="" style="shape=tableRow;horizontal=0;startSize=0;swimlaneHead=0;swimlaneBody=0;strokeColor=inherit;top=0;left=0;bottom=0;right=0;collapsible=0;dropTarget=0;fillColor=none;points=[[0,0.5],[1,0.5]];portConstraint=eastwest;pointerEvents=1;align=center;verticalAlign=middle;spacingLeft=7;spacingRight=7;fontFamily=Helvetica;fontSize=12;fontColor=default;" parent="5DFN9uElky3kn-lGwo1o-1" vertex="1">
          <mxGeometry y="420" width="600" height="260" as="geometry" />
        </mxCell>
        <mxCell id="5DFN9uElky3kn-lGwo1o-27" value="&lt;b&gt;Основной сценарий&lt;/b&gt;" style="shape=partialRectangle;html=1;whiteSpace=wrap;connectable=0;strokeColor=inherit;overflow=hidden;fillColor=none;top=0;left=0;bottom=0;right=0;pointerEvents=1;align=center;verticalAlign=middle;spacingLeft=7;spacingRight=7;fontFamily=Helvetica;fontSize=12;fontColor=default;" parent="5DFN9uElky3kn-lGwo1o-26" vertex="1">
          <mxGeometry width="160" height="260" as="geometry">
            <mxRectangle width="160" height="260" as="alternateBounds" />
          </mxGeometry>
        </mxCell>
        <mxCell id="5DFN9uElky3kn-lGwo1o-29" value="&lt;ol style=&quot;text-align: left;&quot;&gt;&lt;li style=&quot;box-sizing: border-box;&quot;&gt;&lt;font face=&quot;Helvetica&quot; style=&quot;font-size: 12px;&quot;&gt;Система отображает экран Создания приема пищи (Экран 2).&lt;/font&gt;&lt;/li&gt;&lt;li style=&quot;box-sizing: border-box; margin-top: 0.25em;&quot;&gt;&lt;font face=&quot;Helvetica&quot; style=&quot;font-size: 12px;&quot;&gt;Пользователь&amp;nbsp;вводит данные и нажимает кнопку &quot;Добавить продукт&quot;(2).&lt;/font&gt;&lt;/li&gt;&lt;li style=&quot;box-sizing: border-box; margin-top: 0.25em;&quot;&gt;&lt;font face=&quot;Helvetica&quot; style=&quot;font-size: 12px;&quot;&gt;Система отображает экран&amp;nbsp;&lt;/font&gt;&lt;span style=&quot;text-align: center;&quot;&gt;Поиска продукта (Экран 3).&lt;/span&gt;&lt;/li&gt;&lt;li style=&quot;box-sizing: border-box; margin-top: 0.25em;&quot;&gt;&lt;font face=&quot;Helvetica&quot; style=&quot;font-size: 12px;&quot;&gt;Пользователь выбирает продукты, редактирует их вес, нажимает кнопку &quot;Сохранить&quot; (3).&lt;/font&gt;&lt;/li&gt;&lt;li style=&quot;box-sizing: border-box; margin-top: 0.25em;&quot;&gt;&lt;font face=&quot;Helvetica&quot; style=&quot;font-size: 12px;&quot;&gt;Система отображает экран Создания приема пищи&amp;nbsp;&lt;/font&gt;(Экран 2а) с добавленными продуктами.&lt;/li&gt;&lt;li style=&quot;box-sizing: border-box; margin-top: 0.25em;&quot;&gt;&lt;font face=&quot;Helvetica&quot; style=&quot;font-size: 12px;&quot;&gt;Пользователь&amp;nbsp;нажимает кнопку &quot;Сохранить&quot;&amp;nbsp;&lt;/font&gt;(4).&lt;/li&gt;&lt;li style=&quot;box-sizing: border-box; margin-top: 0.25em;&quot;&gt;&lt;font face=&quot;Helvetica&quot; style=&quot;font-size: 12px;&quot;&gt;Система отображает главный экран Аналитики (Экран 1) с обновленной аналитикой.&lt;/font&gt;&lt;/li&gt;&lt;/ol&gt;&lt;div style=&quot;text-align: left;&quot;&gt;&lt;font style=&quot;font-size: 12px;&quot;&gt;&lt;b style=&quot;font-weight: bold; font-family: zzuSuCfO2p9CnVu4Nci0;&quot;&gt;&lt;span style=&quot;white-space: pre;&quot;&gt;&#x9;&lt;/span&gt;&lt;/b&gt;&lt;font style=&quot;&quot; face=&quot;Helvetica&quot;&gt;&lt;span style=&quot;font-weight: bold; text-align: center;&quot;&gt;Критерий успеха: &lt;span style=&quot;font-weight: normal;&quot;&gt;Пользователь видит обновленную аналитику &lt;span style=&quot;white-space: pre;&quot;&gt;&#x9;&lt;/span&gt;питания на экране Аналитики (Экран 1)&lt;/span&gt;&lt;/span&gt;.&lt;/font&gt;&lt;/font&gt;&lt;/div&gt;" style="shape=partialRectangle;html=1;whiteSpace=wrap;connectable=0;strokeColor=inherit;overflow=hidden;fillColor=none;top=0;left=0;bottom=0;right=0;pointerEvents=1;spacingLeft=7;spacingRight=7;align=center;verticalAlign=middle;fontFamily=Helvetica;fontSize=12;fontColor=default;" parent="5DFN9uElky3kn-lGwo1o-26" vertex="1">
          <mxGeometry x="160" width="440" height="260" as="geometry">
            <mxRectangle width="440" height="260" as="alternateBounds" />
          </mxGeometry>
        </mxCell>
        <mxCell id="5DFN9uElky3kn-lGwo1o-30" value="" style="shape=tableRow;horizontal=0;startSize=0;swimlaneHead=0;swimlaneBody=0;strokeColor=inherit;top=0;left=0;bottom=0;right=0;collapsible=0;dropTarget=0;fillColor=none;points=[[0,0.5],[1,0.5]];portConstraint=eastwest;pointerEvents=1;align=center;verticalAlign=middle;spacingLeft=7;spacingRight=7;fontFamily=Helvetica;fontSize=12;fontColor=default;" parent="5DFN9uElky3kn-lGwo1o-1" vertex="1">
          <mxGeometry y="680" width="600" height="420" as="geometry" />
        </mxCell>
        <mxCell id="5DFN9uElky3kn-lGwo1o-31" value="&lt;b&gt;Альтернативный сценарий&lt;/b&gt;" style="shape=partialRectangle;html=1;whiteSpace=wrap;connectable=0;strokeColor=inherit;overflow=hidden;fillColor=none;top=0;left=0;bottom=0;right=0;pointerEvents=1;align=center;verticalAlign=middle;spacingLeft=7;spacingRight=7;fontFamily=Helvetica;fontSize=12;fontColor=default;" parent="5DFN9uElky3kn-lGwo1o-30" vertex="1">
          <mxGeometry width="160" height="420" as="geometry">
            <mxRectangle width="160" height="420" as="alternateBounds" />
          </mxGeometry>
        </mxCell>
        <mxCell id="5DFN9uElky3kn-lGwo1o-33" value="&lt;div&gt;&lt;span style=&quot;white-space: pre;&quot;&gt;&#x9;&lt;/span&gt;4. а.&amp;nbsp;&lt;span style=&quot;background-color: initial;&quot;&gt;Клиент нажимает кнопку &quot;Создать продукт&quot; (2.а).&lt;/span&gt;&lt;/div&gt;&lt;div&gt;&lt;span style=&quot;background-color: initial;&quot;&gt;&lt;span style=&quot;white-space: pre;&quot;&gt;&#x9;&lt;/span&gt;5. а. Система отображает экран Создания/редактирования &lt;span style=&quot;white-space: pre;&quot;&gt;&#x9;&lt;/span&gt;&lt;span style=&quot;white-space: pre;&quot;&gt;&#x9;&lt;/span&gt;продукта&amp;nbsp;&amp;nbsp;(Экран 4).&lt;/span&gt;&lt;/div&gt;&lt;div&gt;&lt;span style=&quot;background-color: initial;&quot;&gt;&lt;span style=&quot;white-space: pre;&quot;&gt;&#x9;&lt;/span&gt;6. а. Клиент заполняет поля&lt;/span&gt;&lt;span style=&quot;background-color: initial;&quot;&gt;&amp;nbsp;и нажимает кнопку &quot;Сохранить&quot; (2.1).&lt;/span&gt;&lt;/div&gt;&lt;div&gt;&lt;font style=&quot;background-color: initial;&quot; face=&quot;Helvetica&quot;&gt;&lt;span style=&quot;white-space: pre;&quot;&gt;&#x9;&lt;/span&gt;7. а. Система &lt;/font&gt;&lt;font style=&quot;background-color: initial;&quot; face=&quot;Helvetica&quot;&gt;отображает экран&amp;nbsp;&lt;/font&gt;&lt;span style=&quot;background-color: initial; text-align: center;&quot;&gt;Поиска продукта (Экран 3) &lt;span style=&quot;white-space: pre;&quot;&gt;&#x9;&lt;/span&gt;&lt;span style=&quot;white-space: pre;&quot;&gt;&#x9;&lt;/span&gt;и&amp;nbsp;&lt;/span&gt;&lt;span style=&quot;text-align: center; background-color: initial;&quot;&gt;сохраненный продукт в списке&lt;/span&gt;&lt;span style=&quot;background-color: initial; text-align: center;&quot;&gt;.&lt;/span&gt;&lt;/div&gt;&lt;div&gt;&lt;br&gt;&lt;/div&gt;&lt;ul style=&quot;box-sizing: border-box; padding-left: 2em; margin-top: 0px; margin-bottom: var(--base-size-16);&quot; dir=&quot;auto&quot;&gt;&lt;li style=&quot;box-sizing: border-box;&quot;&gt;&lt;font face=&quot;Helvetica&quot; style=&quot;font-size: 12px;&quot;&gt;Переход к шагу 4 основного сценария.&lt;/font&gt;&lt;/li&gt;&lt;/ul&gt;&lt;div&gt;&lt;br&gt;&lt;/div&gt;&lt;div&gt;-------------------------------------------------------------------------------------------------------&lt;/div&gt;&lt;div&gt;&lt;br&gt;&lt;/div&gt;&lt;div&gt;&lt;span style=&quot;white-space: pre;&quot;&gt;&#x9;&lt;/span&gt;4. б.&amp;nbsp;&lt;span style=&quot;background-color: initial;&quot;&gt;Пользователь&amp;nbsp;свайпает по продукту вправо и нажимает на &lt;span style=&quot;white-space: pre;&quot;&gt;&#x9;&lt;/span&gt;&lt;span style=&quot;white-space: pre;&quot;&gt;&#x9;&lt;/span&gt;иконку &quot;Редактировать&quot;.&lt;/span&gt;&lt;/div&gt;&lt;div&gt;&lt;span style=&quot;background-color: initial;&quot;&gt;&lt;span style=&quot;white-space: pre;&quot;&gt;&#x9;&lt;/span&gt;5. б. Система отображает экран Создания/редактирования продукта &lt;span style=&quot;white-space: pre;&quot;&gt;&#x9;&lt;/span&gt;&lt;span style=&quot;white-space: pre;&quot;&gt;&#x9;&lt;/span&gt;(Экран 4).&lt;/span&gt;&lt;/div&gt;&lt;div&gt;&lt;font style=&quot;background-color: initial;&quot; face=&quot;Helvetica&quot;&gt;&lt;span style=&quot;white-space: pre;&quot;&gt;&#x9;&lt;/span&gt;6. б. Пользователь&amp;nbsp;редактирует&lt;/font&gt;&lt;span style=&quot;background-color: initial;&quot;&gt;&amp;nbsp;данные и нажимает кнопку &lt;span style=&quot;white-space: pre;&quot;&gt;&#x9;&lt;/span&gt;&lt;span style=&quot;white-space: pre;&quot;&gt;&#x9;&lt;/span&gt;&quot;Сохранить&quot; (2.1).&lt;/span&gt;&lt;/div&gt;&lt;div&gt;&lt;font style=&quot;background-color: initial;&quot; face=&quot;Helvetica&quot;&gt;&lt;span style=&quot;white-space: pre;&quot;&gt;&#x9;&lt;/span&gt;7. б. Система &lt;/font&gt;&lt;font style=&quot;background-color: initial;&quot; face=&quot;Helvetica&quot;&gt;отображает экран&amp;nbsp;&lt;/font&gt;&lt;span style=&quot;background-color: initial; text-align: center;&quot;&gt;Поиска продукта (Экран 3) и &lt;span style=&quot;white-space: pre;&quot;&gt;&#x9;&lt;/span&gt;&lt;span style=&quot;white-space: pre;&quot;&gt;&#x9;&lt;/span&gt;сохраненный продукт в списке.&lt;/span&gt;&lt;/div&gt;&lt;div&gt;&lt;div&gt;&lt;br&gt;&lt;/div&gt;&lt;ul style=&quot;box-sizing: border-box; padding-left: 2em; margin-top: 0px; margin-bottom: var(--base-size-16);&quot; dir=&quot;auto&quot;&gt;&lt;li style=&quot;box-sizing: border-box;&quot;&gt;&lt;font face=&quot;Helvetica&quot;&gt;Переход к шагу 4 основного сценария.&lt;/font&gt;&lt;/li&gt;&lt;/ul&gt;&lt;div&gt;&lt;br&gt;&lt;/div&gt;&lt;/div&gt;&lt;div&gt;---------------------------------------------------------------------------------------------------------&lt;/div&gt;&lt;div&gt;&lt;br&gt;&lt;/div&gt;&lt;div&gt;&amp;nbsp; &amp;nbsp;&lt;span style=&quot;white-space: pre;&quot;&gt;&#x9;&lt;/span&gt;6. а. Пользователь нажимает кнопку&amp;nbsp;&lt;span style=&quot;background-color: initial;&quot;&gt;&quot;Добавить продукт&quot;(4.а).&lt;/span&gt;&lt;br&gt;&lt;/div&gt;&lt;div&gt;&lt;span style=&quot;background-color: initial;&quot;&gt;&lt;br&gt;&lt;/span&gt;&lt;/div&gt;&lt;div&gt;&lt;ul style=&quot;box-sizing: border-box; padding-left: 2em; margin-top: 0px; margin-bottom: var(--base-size-16);&quot; dir=&quot;auto&quot;&gt;&lt;li style=&quot;box-sizing: border-box;&quot;&gt;&lt;font face=&quot;Helvetica&quot;&gt;Переход к шагу 3 основного сценария.&lt;/font&gt;&lt;/li&gt;&lt;/ul&gt;&lt;/div&gt;" style="shape=partialRectangle;html=1;whiteSpace=wrap;connectable=0;strokeColor=inherit;overflow=hidden;fillColor=none;top=0;left=0;bottom=0;right=0;pointerEvents=1;align=left;spacingLeft=7;spacingRight=7;verticalAlign=middle;fontFamily=Helvetica;fontSize=12;fontColor=default;" parent="5DFN9uElky3kn-lGwo1o-30" vertex="1">
          <mxGeometry x="160" width="440" height="420" as="geometry">
            <mxRectangle width="440" height="420" as="alternateBounds" />
          </mxGeometry>
        </mxCell>
        <mxCell id="5DFN9uElky3kn-lGwo1o-34" value="" style="shape=tableRow;horizontal=0;startSize=0;swimlaneHead=0;swimlaneBody=0;strokeColor=inherit;top=0;left=0;bottom=0;right=0;collapsible=0;dropTarget=0;fillColor=none;points=[[0,0.5],[1,0.5]];portConstraint=eastwest;pointerEvents=1;align=center;verticalAlign=middle;spacingLeft=7;spacingRight=7;fontFamily=Helvetica;fontSize=12;fontColor=default;" parent="5DFN9uElky3kn-lGwo1o-1" vertex="1">
          <mxGeometry y="1100" width="600" height="270" as="geometry" />
        </mxCell>
        <mxCell id="5DFN9uElky3kn-lGwo1o-35" value="&lt;b&gt;Исключительный сценарий&lt;/b&gt;" style="shape=partialRectangle;html=1;whiteSpace=wrap;connectable=0;strokeColor=inherit;overflow=hidden;fillColor=none;top=0;left=0;bottom=0;right=0;pointerEvents=1;align=center;verticalAlign=middle;spacingLeft=7;spacingRight=7;fontFamily=Helvetica;fontSize=12;fontColor=default;" parent="5DFN9uElky3kn-lGwo1o-34" vertex="1">
          <mxGeometry width="160" height="270" as="geometry">
            <mxRectangle width="160" height="270" as="alternateBounds" />
          </mxGeometry>
        </mxCell>
        <mxCell id="5DFN9uElky3kn-lGwo1o-37" value="&lt;div style=&quot;text-align: left;&quot;&gt;&lt;ol style=&quot;box-sizing: border-box; padding-left: 2em; margin-top: 0px; margin-bottom: var(--base-size-16);&quot; dir=&quot;auto&quot; start=&quot;2&quot;&gt;&lt;li style=&quot;box-sizing: border-box;&quot;&gt;&lt;font color=&quot;#b3b3b3&quot;&gt;а. Пользователь&amp;nbsp;нажимает кнопку &quot;Назад&quot;.&lt;/font&gt;&lt;/li&gt;&lt;li style=&quot;box-sizing: border-box; margin-top: 0.25em;&quot;&gt;&lt;font color=&quot;#b3b3b3&quot;&gt;а. Система отображает главный экран Аналитики без сохранения данных о приеме пищи.&lt;/font&gt;&lt;/li&gt;&lt;/ol&gt;&lt;div&gt;&lt;font color=&quot;#b3b3b3&quot;&gt;&lt;br&gt;&lt;/font&gt;&lt;/div&gt;&lt;div&gt;&lt;font color=&quot;#b3b3b3&quot;&gt;&lt;b&gt;&lt;span style=&quot;white-space: pre;&quot;&gt;&#x9;&lt;/span&gt;Результат&lt;/b&gt;: Новый прием пищи не добавлен и нет изменений в &lt;span style=&quot;white-space: pre;&quot;&gt;&#x9;&lt;/span&gt;аналитике.&lt;/font&gt;&lt;/div&gt;&lt;div&gt;----------------------------------------------------------------------------------------------------------&lt;/div&gt;&lt;div&gt;&lt;br&gt;&lt;/div&gt;&lt;div&gt;&lt;span style=&quot;white-space: pre;&quot;&gt;&#x9;&lt;/span&gt;&lt;span style=&quot;background-color: initial;&quot;&gt;6. а. Клиент не заполнил обязательное поле&amp;nbsp;&lt;/span&gt;&lt;span style=&quot;background-color: initial;&quot;&gt;и нажимает кнопку &lt;span style=&quot;white-space: pre;&quot;&gt;&#x9;&lt;/span&gt;&lt;span style=&quot;white-space: pre;&quot;&gt;&#x9;&lt;/span&gt;&quot;Сохранить&quot; (2.1).&lt;/span&gt;&lt;br&gt;&lt;/div&gt;&lt;div&gt;&lt;font style=&quot;background-color: initial;&quot; face=&quot;Helvetica&quot;&gt;&lt;span style=&quot;white-space: pre;&quot;&gt;&#x9;&lt;/span&gt;7. а. Система&amp;nbsp;&lt;/font&gt;&lt;font style=&quot;background-color: initial;&quot; face=&quot;Helvetica&quot;&gt;отображает экран&amp;nbsp;&lt;/font&gt;Создания/редактирования &lt;span style=&quot;white-space: pre;&quot;&gt;&#x9;&lt;/span&gt;продукта&amp;nbsp;(Экран 4)&lt;span style=&quot;background-color: initial; text-align: center;&quot;&gt;&amp;nbsp;и&amp;nbsp;&lt;/span&gt;&lt;span style=&quot;text-align: center; background-color: initial;&quot;&gt;подсвечивает красным незаполненное поле&lt;/span&gt;&lt;span style=&quot;background-color: initial; text-align: center;&quot;&gt;.&lt;/span&gt;&lt;/div&gt;&lt;div&gt;&lt;b style=&quot;background-color: initial; color: rgb(179, 179, 179);&quot;&gt;&lt;br&gt;&lt;/b&gt;&lt;/div&gt;&lt;div&gt;&lt;b style=&quot;background-color: initial;&quot;&gt;&lt;span style=&quot;color: rgb(179, 179, 179); white-space: pre;&quot;&gt;&#x9;&lt;/span&gt;Результат&lt;/b&gt;&lt;span style=&quot;background-color: initial;&quot;&gt;: Новый продукт и прием пищи не добавлен, нет &lt;span style=&quot;white-space: pre;&quot;&gt;&#x9;&lt;/span&gt;изменений в&amp;nbsp;&lt;/span&gt;&lt;span style=&quot;background-color: initial;&quot;&gt;аналитике.&lt;/span&gt;&lt;/div&gt;&lt;/div&gt;" style="shape=partialRectangle;html=1;whiteSpace=wrap;connectable=0;strokeColor=inherit;overflow=hidden;fillColor=none;top=0;left=0;bottom=0;right=0;pointerEvents=1;spacingLeft=7;spacingRight=7;align=center;verticalAlign=middle;fontFamily=Helvetica;fontSize=12;fontColor=default;" parent="5DFN9uElky3kn-lGwo1o-34" vertex="1">
          <mxGeometry x="160" width="440" height="270" as="geometry">
            <mxRectangle width="440" height="270" as="alternateBounds" />
          </mxGeometry>
        </mxCell>
      </root>
    </mxGraphModel>
  </diagram>
</mxfile>
